<?xml version="1.0" standalone="no"?>
<!DOCTYPE svg PUBLIC "-//W3C//DTD SVG 20010904//EN"
 "http://www.w3.org/TR/2001/REC-SVG-20010904/DTD/svg10.dtd">
<svg version="1.0" xmlns="http://www.w3.org/2000/svg"
 width="700.000000pt" height="700.000000pt" viewBox="0 0 700.000000 700.000000"
 preserveAspectRatio="xMidYMid meet">
<metadata>
Created by potrace 1.14, written by Peter Selinger 2001-2017
</metadata>
<g transform="translate(0.000000,700.000000) scale(0.100000,-0.100000)"
fill="#000000" stroke="none">
<path d="M3500 5543 l0 -293 379 0 379 0 10 -27 c22 -62 244 -671 258 -708 21
-53 140 -385 148 -411 l6 -20 -699 0 -700 0 -15 41 c-8 22 -31 84 -51 139 -19
54 -33 101 -30 105 3 3 75 6 158 6 l152 0 3 291 2 292 -729 0 -729 0 2 -291 1
-292 252 0 c138 0 254 -2 256 -5 2 -3 14 -32 25 -65 33 -97 92 -258 101 -280
5 -11 29 -76 54 -145 25 -69 113 -312 196 -540 83 -228 147 -417 142 -420 -5
-3 -44 -4 -88 -3 -103 2 -100 1 -100 16 0 6 -10 48 -22 92 -120 433 -431 782
-845 949 -304 123 -630 140 -946 51 -47 -13 -102 -31 -122 -40 -21 -8 -39 -15
-40 -14 -2 1 -48 -22 -103 -51 -356 -189 -616 -496 -739 -873 -44 -134 -58
-231 -61 -406 -3 -192 16 -315 73 -486 74 -226 177 -392 346 -560 227 -226
502 -366 806 -410 25 -4 56 -9 70 -11 58 -8 290 -5 355 6 112 18 120 19 187
36 149 38 307 110 438 199 304 206 510 509 600 880 l9 40 593 -2 c326 -1 603
-2 614 -2 17 -1 23 -9 28 -43 24 -155 141 -403 268 -567 159 -205 405 -382
655 -470 150 -53 269 -73 458 -77 99 -2 198 1 220 6 22 5 60 12 85 15 24 4 52
11 62 16 10 5 18 7 18 5 0 -9 202 65 269 99 119 59 152 79 244 148 284 212
484 519 563 862 24 105 27 141 28 290 0 94 -3 188 -7 210 -3 22 -9 57 -12 78
-3 21 -15 72 -26 114 -134 486 -502 865 -979 1007 -160 47 -259 59 -496 60
l-171 1 -26 70 c-14 39 -60 165 -102 280 -43 116 -94 257 -115 315 -21 58 -57
157 -80 220 -23 63 -55 151 -70 195 -131 366 -150 404 -248 501 -72 72 -189
135 -287 155 -41 8 -188 12 -468 13 l-407 1 0 -292z m-1925 -2052 c62 -9 72
-11 144 -31 170 -46 373 -198 467 -351 50 -80 95 -182 84 -189 -4 -3 -189 -5
-409 -4 l-401 0 -1 -85 c0 -96 0 -470 1 -487 0 -7 120 -10 393 -10 215 1 400
-1 409 -2 15 -4 14 -11 -9 -65 -68 -161 -212 -320 -363 -404 -64 -36 -173 -80
-215 -87 -17 -3 -52 -10 -80 -15 -81 -16 -269 -6 -360 18 -381 102 -640 429
-649 821 -9 355 180 667 493 815 150 71 336 99 496 76z m2788 -3 c-4 -7 -25
-40 -47 -72 -84 -127 -168 -324 -191 -449 -4 -20 -12 -40 -18 -44 -13 -8 -385
-10 -398 -3 -5 4 -17 31 -28 60 -11 30 -34 93 -51 140 -17 47 -42 114 -55 150
-12 36 -37 102 -54 148 l-30 82 440 0 c350 0 439 -3 432 -12z m1411 -18 c176
-47 330 -146 456 -295 27 -32 89 -133 107 -175 60 -139 76 -214 77 -355 1
-140 -6 -196 -35 -285 -124 -381 -465 -619 -864 -605 -165 6 -229 21 -370 90
-168 82 -300 216 -386 390 -65 134 -90 242 -91 390 0 236 94 461 264 627 l38
38 13 -33 c8 -17 71 -191 142 -385 106 -290 131 -352 144 -346 9 3 72 26 141
50 69 24 134 48 145 53 11 5 67 25 125 46 58 20 108 40 112 44 6 5 -144 432
-237 676 -13 33 -26 71 -30 84 l-7 24 90 -7 c49 -3 124 -15 166 -26z"/>
</g>
</svg>
